<svg width="1200" height="630" viewBox="0 0 1200 630" fill="none" xmlns="http://www.w3.org/2000/svg">
  <defs>
    <linearGradient id="bg" x1="130" y1="42" x2="1042" y2="630" gradientUnits="userSpaceOnUse">
      <stop stop-color="#182229"/>
      <stop offset="0.55" stop-color="#10171D"/>
      <stop offset="1" stop-color="#090D11"/>
    </linearGradient>
    <linearGradient id="glow" x1="140" y1="104" x2="918" y2="530" gradientUnits="userSpaceOnUse">
      <stop stop-color="#B89364" stop-opacity="0.32"/>
      <stop offset="1" stop-color="#6F8978" stop-opacity="0.18"/>
    </linearGradient>
    <linearGradient id="mountain" x1="791" y1="103" x2="791" y2="528" gradientUnits="userSpaceOnUse">
      <stop stop-color="#293942"/>
      <stop offset="1" stop-color="#0D1419"/>
    </linearGradient>
  </defs>

  <rect width="1200" height="630" rx="0" fill="url(#bg)"/>
  <rect width="1200" height="630" fill="url(#glow)"/>

  <circle cx="956" cy="120" r="84" fill="#B89364" fill-opacity="0.12"/>
  <circle cx="174" cy="118" r="126" fill="#9EB6A7" fill-opacity="0.08"/>

  <path d="M718 534L884 142L1072 534H718Z" fill="url(#mountain)"/>
  <path d="M805 331L886 142L966 331H805Z" fill="#223038"/>
  <path d="M858 207L886 142L915 207H858Z" fill="#EDE3D1" fill-opacity="0.86"/>

  <path d="M0 479C91 458 160 456 254 471C341 485 431 518 521 514C612 511 694 465 790 455C887 444 1011 471 1200 512V630H0V479Z" fill="#0C1217"/>
  <path d="M0 525C116 507 207 500 295 511C405 524 473 557 589 557C687 557 770 525 880 516C990 507 1091 526 1200 556V630H0V525Z" fill="#111920"/>

  <rect x="54" y="54" width="1092" height="522" rx="32" stroke="#B89364" stroke-opacity="0.18"/>

  <text x="110" y="140" fill="#B89364" font-family="Space Grotesk, Arial, sans-serif" font-size="20" font-weight="700" letter-spacing="12">
    EKSPEDISI VIA SUWANTING
  </text>
  <text x="110" y="282" fill="#D9C7AD" font-family="Unbounded, Arial, sans-serif" font-size="112" font-style="italic" font-weight="900">
    MERBABU
  </text>
  <text x="110" y="372" fill="#F5EFE4" font-family="Unbounded, Arial, sans-serif" font-size="72" font-style="italic" font-weight="900">
    3.145
  </text>
  <text x="110" y="438" fill="#9EB6A7" font-family="Space Grotesk, Arial, sans-serif" font-size="24" font-weight="700" letter-spacing="6">
    SAWANGAN, MAGELANG • 27 - 30 MARET 2026
  </text>
  <text x="110" y="512" fill="#E9E1D2" font-family="Space Grotesk, Arial, sans-serif" font-size="30" font-weight="500">
    Itinerary pendakian premium dengan tema mountain luxury
  </text>
</svg>
